<svg width="235" height="235" viewBox="0 0 235 235" fill="none" xmlns="http://www.w3.org/2000/svg">
<path d="M175.105 235H59.8853C26.8087 235 0 208.191 0 175.115V59.8853C0 26.8087 26.8087 0 59.8853 0H175.115C208.191 0 235 26.8087 235 59.8853V175.115C234.99 208.181 208.181 235 175.105 235Z" fill="url(#paint0_linear)"/>
<path d="M148.757 62.4015C152.988 62.4015 156.571 65.9689 156.571 70.202V163.798C156.571 168.021 152.997 171.599 148.757 171.599H86.2525C82.0225 171.599 78.4394 168.031 78.4394 163.798V70.202C78.4394 65.9788 82.0125 62.4015 86.2525 62.4015H148.757ZM148.757 39H86.2525C69.0636 39 55 53.0409 55 70.202V163.798C55 180.959 69.0636 195 86.2525 195H148.748C165.936 195 180 180.959 180 163.798V70.202C180 53.0409 165.936 39 148.757 39Z" fill="#ABD9FE"/>
<path fill-rule="evenodd" clip-rule="evenodd" d="M179.99 70.202V83.8454V83.8553H156.561V70.202C156.561 65.9689 152.978 62.4015 148.748 62.4015H116V39H148.738C165.926 39 179.99 53.0409 179.99 70.202Z" fill="url(#paint1_linear)"/>
<path fill-rule="evenodd" clip-rule="evenodd" d="M151 194.919V171.257C150.287 171.479 149.533 171.599 148.758 171.599H86.2524C82.0225 171.599 78.4395 168.031 78.4395 163.798V150.145H55V163.798C55 180.959 69.0637 195 86.2524 195H148.748C149.505 195 150.256 194.973 151 194.919Z" fill="url(#paint2_linear)"/>
<path fill-rule="evenodd" clip-rule="evenodd" d="M86.2524 39H121V62.4014H86.2524C82.0125 62.4014 78.4395 65.9788 78.4395 70.2019V97.4988C78.4395 101.732 82.0225 105.299 86.2524 105.299H101.869H133.121H148.748C165.936 105.299 180 119.34 180 136.501V163.798C180 180.959 165.936 195 148.748 195H112V171.599H148.758C152.998 171.599 156.571 168.021 156.571 163.798V136.501C156.571 132.268 152.988 128.701 148.758 128.701H133.131H101.879H86.2524C69.0637 128.701 55 114.66 55 97.4988V70.2019C55 53.041 69.0637 39 86.2524 39Z" fill="white"/>
<defs>
<linearGradient id="paint0_linear" x1="0.584084" y1="233.717" x2="242.037" y2="-6.30663" gradientUnits="userSpaceOnUse">
<stop stop-color="#0137FF"/>
<stop offset="0.9345" stop-color="#00BFFE"/>
</linearGradient>
<linearGradient id="paint1_linear" x1="161" y1="83.0001" x2="153.5" y2="54.5" gradientUnits="userSpaceOnUse">
<stop stop-color="white" stop-opacity="0"/>
<stop offset="1" stop-color="white"/>
</linearGradient>
<linearGradient id="paint2_linear" x1="65.5" y1="153" x2="69.608" y2="176.843" gradientUnits="userSpaceOnUse">
<stop stop-color="white" stop-opacity="0"/>
<stop offset="1" stop-color="white"/>
</linearGradient>
</defs>
</svg>
