<svg width="221" height="127" viewBox="0 0 221 127" fill="none" xmlns="http://www.w3.org/2000/svg">
<path fill-rule="evenodd" clip-rule="evenodd" d="M17.3971 1.31776C9.20319 1.31776 3.86713 4.91165 3.86713 10.4422C3.86713 18.0885 10.4948 20.1063 17.2849 22.1736C24.4487 24.3546 31.7932 26.5907 31.7265 35.5494C31.7265 42.4676 25.5311 46.9999 15.9282 46.9999C10.0626 46.9999 3.86714 44.4043 0 40.4111L0.939307 39.4827C4.4667 43.2763 10.3324 45.6722 15.9282 45.6722C24.7217 45.6722 30.3875 41.679 30.3875 35.5494C30.4565 27.6089 23.6912 25.5382 16.8111 23.4323C9.73048 21.2651 2.52813 19.0606 2.52813 10.3823C2.52813 4.123 8.39378 0 17.3871 0C21.7239 0 26.5803 1.32776 29.7879 3.39424L29.1185 4.46237C26.1307 2.51568 21.5341 1.31776 17.3971 1.31776ZM100.306 25.9557V46.8002H98.9766V25.9557C98.9766 18.2288 94.5798 13.7065 87.1154 13.7065C78.122 13.9062 72.9159 19.9659 72.9159 29.9489V46.8002H71.5769V25.9557C71.5769 18.2288 67.1102 13.7065 59.6457 13.7065C50.7123 13.9062 45.4462 19.9659 45.4462 29.9489V46.8002H44.1172V12.3788H45.4462V22.232C47.5746 16.0426 52.5809 12.5086 59.7057 12.3788C66.9003 12.3788 71.6368 16.2422 72.706 22.9009C74.7046 16.3121 79.7708 12.5186 87.1054 12.3788C95.4392 12.3688 100.306 17.4302 100.306 25.9557ZM136.349 39.0034L136.419 46.7802H137.748L137.618 23.8093C137.558 16.8212 133.291 12.3588 125.357 12.3588C120.491 12.3588 116.364 14.3554 112.496 17.4202L113.296 18.4884C117.033 15.5634 120.76 13.6965 125.357 13.6965C132.622 13.6965 136.229 17.4901 136.289 23.8193V28.0121H123.488C115.624 28.0121 110.688 31.2766 110.688 36.8671C110.688 42.5973 115.224 46.7902 121.889 46.7902C128.085 46.7902 133.281 44.3942 136.349 39.0034ZM136.279 29.3499L136.349 36.0085C133.621 42.797 128.624 45.4624 121.949 45.4624C115.884 45.4624 112.017 41.9384 112.017 36.877C112.017 32.0752 116.144 29.3499 123.478 29.3499H136.279ZM165.807 12.3691V13.7067C158.013 13.9064 153.206 19.1675 152.607 27.9525V46.7904H151.278V12.3691H152.607V21.763C154.675 15.893 159.272 12.5088 165.807 12.3691ZM182.205 46.8001C184.663 46.7303 187.001 45.8717 189 44.3343L188.191 43.2761C186.462 44.6737 184.323 45.4025 182.195 45.4724C178.268 45.5323 176.199 42.6672 176.199 37.3462V14.3754H188.33V13.0477H176.199V4.8516H174.87V13.0477H169.804V14.3754H174.87V37.3462C174.87 43.6056 177.409 46.87 182.205 46.8001Z" fill="#414751"/>
<path fill-rule="evenodd" clip-rule="evenodd" d="M96.2399 126.391V77H85.9986V126.391H96.2399ZM19.964 87.9882C16.4438 87.9882 14.0406 89.3255 14.0406 91.9203C14.0406 95.5932 18.3799 96.88 23.4239 98.3757C30.4409 100.457 38.8218 102.942 38.7812 112.818C38.7812 122.01 30.8634 127 20.5523 127C12.9038 127 5.25525 124.076 0 119.545L4.18823 110.952C8.9748 115.283 15.7657 118.008 20.6819 118.008C25.0098 118.008 27.6025 116.341 27.6025 113.347C27.6025 109.552 23.173 108.3 18.0572 106.853C11.0656 104.876 2.79215 102.536 2.79215 92.8484C2.79215 84.3255 10.0418 78.9363 20.8116 78.9363C27.3333 78.9363 33.845 81.0022 38.5019 84.056L34.4433 92.7786C29.5371 89.7846 23.6835 87.9882 19.964 87.9882ZM78.8887 111.611H53.2207C54.4174 116.142 57.8776 118.796 62.4648 118.796C65.8553 118.796 69.0563 117.469 71.5094 115.004L76.8943 120.463C73.3044 124.455 68.0491 126.79 61.5972 126.79C50.1593 126.79 42.9097 119.465 42.9097 108.617C42.9097 97.5688 50.4285 90.2435 61.3379 90.2435C73.8927 90.2435 79.7463 98.5668 78.8887 111.611ZM69.3056 105.553C69.176 100.822 66.1145 97.7684 61.3878 97.7684C56.8605 97.7684 53.8091 100.832 53.0013 105.553H69.3056ZM117.052 77V126.391H106.81V77H117.052ZM134.553 111.611H160.22C161.078 98.5668 155.224 90.2435 142.67 90.2435C131.76 90.2435 124.241 97.5688 124.241 108.617C124.241 119.465 131.491 126.79 142.929 126.79C149.381 126.79 154.636 124.455 158.226 120.463L152.841 115.004C150.388 117.469 147.187 118.796 143.797 118.796C139.209 118.796 135.749 116.142 134.553 111.611ZM142.72 97.7684C147.446 97.7684 150.508 100.822 150.637 105.553H134.333C135.141 100.832 138.192 97.7684 142.72 97.7684ZM189.079 90.1838V99.8344C181.76 99.1658 177.242 103.098 177.242 109.156V126.391H167.001V90.583H177.242V97.04C179.696 92.6488 183.754 90.2437 189.079 90.1838ZM202.173 100.303C202.173 98.4372 203.908 97.6388 206.301 97.6388C209.293 97.6388 213.281 98.8963 217.22 101.102L220.74 94.1059C216.752 91.5809 211.696 90.1139 206.77 90.1139C198.991 90.1139 192.669 93.9163 192.669 101.301C192.669 108.816 199.286 110.751 204.618 112.31C208.215 113.362 211.227 114.243 211.227 116.551C211.227 118.477 209.293 119.345 206.7 119.345C202.781 119.345 197.984 117.748 194.265 114.884L190.934 121.8C194.993 125.064 200.647 126.79 206.431 126.79C214.548 126.79 221 122.938 221 115.613C221.042 107.96 214.137 105.937 208.679 104.337C205.118 103.294 202.173 102.431 202.173 100.303Z" fill="#414751"/>
</svg>
